<?xml version="1.0" encoding="utf-8"?>
<!-- Generator: Adobe Illustrator 16.0.0, SVG Export Plug-In . SVG Version: 6.00 Build 0)  -->
<!DOCTYPE svg PUBLIC "-//W3C//DTD SVG 1.1//EN" "http://www.w3.org/Graphics/SVG/1.1/DTD/svg11.dtd">
<svg version="1.1" id="ÉåÉCÉÑÅ_x5B__1" xmlns="http://www.w3.org/2000/svg" xmlns:xlink="http://www.w3.org/1999/xlink"
	 x="0px" y="0px" width="566.93px" height="82.398px" viewBox="0 0 566.93 82.398" enable-background="new 0 0 566.93 82.398"
	 xml:space="preserve">
<g>
	<path fill="#B7274C" d="M94.795,30c-2.1,5.895-15.27,12.057-47.627,4.746l4.203,19.107c32.373,5.883,51.547,1.045,62.5-10.455
		c8.115-8.523,9.711-19.555,3.037-27.998C109.857,6.484,94.236,0,74.512,0C46.283,0,26.18,8.18,15.018,38.854L0,80.109h26.268
		l14.932-41.721c6.139-17.156,19.016-19.998,33.307-19.998C89.492,18.391,96.732,24.561,94.795,30z"/>
	<path fill="#B7274C" d="M354.836,48.105l-1.01-0.438c5.877-2.35,12.254-3.619,18.588-3.619c3.854,0,12.402,0.658,16.002,2.715
		c0.887,0.504,1.684,1.273,1.254,2.24C388.078,52.58,364.66,52.389,354.836,48.105z M402.818,38.453
		c-6.209-3.316-16.449-5.961-26.459-6.371c-20.752-0.852-44.428,6.234-49.146,22.963c-2.723,9.635,6.613,22.637,30.908,26.334
		c12.158,1.852,31.475,1.387,45.381-3.205l5.188-14.287c-28.193,9.688-65.039,6.877-63.809-7.635
		c13.641,8.744,33.543,7.92,48.275,5.508C418.684,57.584,418.316,46.734,402.818,38.453z"/>
	<path fill="#B7274C" d="M445.852,48.105l-1.01-0.438c5.877-2.35,12.26-3.619,18.594-3.619c3.848,0,12.4,0.66,16.004,2.715
		c0.879,0.504,1.68,1.273,1.25,2.24C479.094,52.58,455.676,52.389,445.852,48.105z M493.834,38.453
		c-6.205-3.316-16.445-5.961-26.459-6.371c-20.752-0.852-44.42,6.234-49.146,22.963c-2.723,9.635,6.617,22.637,30.91,26.334
		c12.156,1.852,31.473,1.387,45.379-3.205l5.188-14.287c-28.193,9.688-65.035,6.877-63.805-7.635
		c13.639,8.744,33.541,7.92,48.271,5.508C509.703,57.584,509.334,46.734,493.834,38.453z"/>
	<path fill="#B7274C" d="M513.004,50.738l-10.42,29.375h24.043l8.008-22.594c1.975-5.732,3.643-10.023,10.654-10.023h16.895
		l4.746-13.541h-31.127C525.389,33.955,517.008,39.123,513.004,50.738z"/>
	<polygon fill="#B7274C" points="110.225,80.113 135.125,80.113 151.947,33.955 127.051,33.955 	"/>
	<path fill="#B7274C" d="M271.766,55.283c2.309-6.348,9.295-9.287,15.434-9.287c6.07,0,11.889,3.566,9.635,9.756l-8.887,24.361
		h24.043l9.021-24.746c4.684-12.852-5.459-23.502-28.162-23.502c-25.273,0-39.6,8.268-45.115,23.391l-9.062,24.857h24.037
		L271.766,55.283z"/>
	<path fill="#B7274C" d="M197.588,46.451c9.725,0.414,17.549,5.309,16.156,11.66c-1.342,6.117-10.811,10.279-20.631,9.867
		c-9.725-0.41-17.547-5.311-16.152-11.66C178.301,50.201,187.768,46.037,197.588,46.451z M200.977,32.105
		c-25.035-1.059-47.35,9.643-50.352,23.336c-2.951,13.465,13.963,25.82,39.1,26.885c25.035,1.061,47.35-9.645,50.354-23.34
		C243.027,45.527,226.113,33.17,200.977,32.105z"/>
</g>
</svg>
